<svg width="54" height="52" viewBox="0 0 54 52" fill="none" xmlns="http://www.w3.org/2000/svg">
<g clip-path="url(#clip0_31_2330)">
<path d="M12.9376 44.6919L3.375 36.4786L5.62123 34.053L15.1406 42.2294L28.1185 30.1314C28.7228 29.568 29.5303 29.2518 30.3715 29.2493C31.2126 29.2468 32.0221 29.558 32.6302 30.1177L38.745 35.7472L48.1597 26.0403L50.625 28.2596L41.2067 37.9702C40.9025 38.2838 40.5367 38.5361 40.1305 38.7125C39.7244 38.889 39.2859 38.986 38.8404 38.9981C38.395 39.0102 37.9515 38.9371 37.5357 38.783C37.1198 38.6288 36.7398 38.3968 36.4178 38.1002L30.3824 32.5442L17.446 44.6027C16.8451 45.163 16.0463 45.4836 15.21 45.5001C14.3737 45.5167 13.5619 45.2279 12.9376 44.6919Z" fill="#E3E3E3" stroke="#E3E3E3" stroke-width="2"/>
<path d="M41.75 6.5H35V9.75H41.75V13H36.6875V16.25H41.75V19.5H35V22.75H41.75C42.6447 22.7488 43.5025 22.4061 44.1352 21.7968C44.7678 21.1876 45.1238 20.3616 45.125 19.5V9.75C45.124 8.88835 44.7681 8.06227 44.1354 7.453C43.5026 6.84372 42.6448 6.50099 41.75 6.5Z" fill="#E3E3E3" stroke="#E3E3E3" stroke-width="2"/>
<path d="M31.625 22.75H21.5V16.25C21.5009 15.3883 21.8568 14.5622 22.4895 13.9529C23.1222 13.3435 23.9802 13.0009 24.875 13H28.25V9.75H21.5V6.5H28.25C29.1448 6.50099 30.0026 6.84372 30.6354 7.453C31.2681 8.06227 31.624 8.88835 31.625 9.75V13C31.624 13.8616 31.2681 14.6877 30.6354 15.297C30.0026 15.9063 29.1448 16.249 28.25 16.25H24.875V19.5H31.625V22.75Z" fill="#E3E3E3" stroke="#E3E3E3" stroke-width="2"/>
<path d="M14.75 19.5V6.5H11.375V8.125H8V11.375H11.375V19.5H8V22.75H18.125V19.5H14.75Z" fill="#E3E3E3" stroke="#E3E3E3" stroke-width="2"/>
<path d="M54 0H0V52H54V0Z" stroke="#E3E3E3" stroke-width="2"/>
</g>
<defs>
<clipPath id="clip0_31_2330">
<rect width="54" height="52" fill="white"/>
</clipPath>
</defs>
</svg>
